<svg xmlns="http://www.w3.org/2000/svg" xmlns:xlink="http://www.w3.org/1999/xlink" width="40" zoomAndPan="magnify" viewBox="0 0 30 30.000001" height="40" preserveAspectRatio="xMidYMid meet" version="1.0"><defs><clipPath id="28b76bc4a8"><path d="M 0.484375 0 L 29.515625 0 L 29.515625 29.03125 L 0.484375 29.03125 Z M 0.484375 0 " clip-rule="nonzero"/></clipPath><clipPath id="cf984061a0"><path d="M 15 0 C 6.984375 0 0.484375 6.5 0.484375 14.515625 C 0.484375 22.53125 6.984375 29.03125 15 29.03125 C 23.015625 29.03125 29.515625 22.53125 29.515625 14.515625 C 29.515625 6.5 23.015625 0 15 0 Z M 15 0 " clip-rule="nonzero"/></clipPath><clipPath id="a60cbcbed8"><path d="M 0.484375 0 L 29.515625 0 L 29.515625 29.03125 L 0.484375 29.03125 Z M 0.484375 0 " clip-rule="nonzero"/></clipPath><clipPath id="a4f1e4853a"><path d="M 15 0 C 6.984375 0 0.484375 6.5 0.484375 14.515625 C 0.484375 22.53125 6.984375 29.03125 15 29.03125 C 23.015625 29.03125 29.515625 22.53125 29.515625 14.515625 C 29.515625 6.5 23.015625 0 15 0 Z M 15 0 " clip-rule="nonzero"/></clipPath><clipPath id="b15084e109"><rect x="0" width="30" y="0" height="30"/></clipPath><clipPath id="13813f87e2"><path d="M 4.441406 3.957031 L 25.488281 3.957031 L 25.488281 25.003906 L 4.441406 25.003906 Z M 4.441406 3.957031 " clip-rule="nonzero"/></clipPath></defs><g clip-path="url(#28b76bc4a8)"><g clip-path="url(#cf984061a0)"><g transform="matrix(1, 0, 0, 1, 0, 0.000000000000005692)"><g clip-path="url(#b15084e109)"><g clip-path="url(#a60cbcbed8)"><g clip-path="url(#a4f1e4853a)"><path fill="#0a0a0a" d="M 0.484375 0 L 29.515625 0 L 29.515625 29.03125 L 0.484375 29.03125 Z M 0.484375 0 " fill-opacity="1" fill-rule="nonzero"/></g></g></g></g></g></g><g clip-path="url(#13813f87e2)"><path stroke-linecap="butt" transform="matrix(0.877016, 0, 0, 0.877016, 4.439516, 3.955647)" fill="none" stroke-linejoin="miter" d="M 22.16092 9.599998 L 19.158909 4.402153 L 14.998851 6.798417 L 14.998851 2.001435 L 8.999282 2.001435 L 8.999282 6.798417 L 4.839225 4.402153 L 1.841667 9.599998 L 6.001725 12.000716 L 1.841667 14.401435 L 4.839225 19.599279 L 8.999282 17.198561 L 8.999282 21.999998 L 14.998851 21.999998 L 14.998851 17.198561 L 19.158909 19.599279 L 22.16092 14.401435 L 18.000863 12.000716 Z M 22.16092 9.599998 " stroke="#ededed" stroke-width="2" stroke-opacity="1" stroke-miterlimit="10"/></g></svg>